<svg xmlns="http://www.w3.org/2000/svg" width="135" height="20" viewBox="0 0 3862 551">
  <defs>
    <style>
      .cls-1 {
        fill: #2296cd;
      }

      .cls-1, .cls-2 {
        fill-rule: evenodd;
      }

      .cls-2 {
        fill: #103c50;
      }
    </style>
  </defs>
  <path id="Color_Fill_2" data-name="Color Fill 2" class="cls-1" d="M1,12l119,1q-0.5,265.974-1,532L0,544Zm343,0,110,1L715,353q0.5-170.483,1-341l119,1q-0.5,265.974-1,532c-17.64.224-112.036,4.125-119-2L464,213h-1q-0.5,165.984-1,332l-119-1Q343.5,278.026,344,12Z"/>
  <path id="Color_Fill_1" data-name="Color Fill 1" class="cls-2" d="M1222,0c95.51-1.767,156.39,31.323,211,70q-29.49,43.5-59,87l-36-23c-35.41-19.18-128.9-51.706-162-7-6.59,8.9-13.66,24.081-9,41,11.23,40.741,93.81,48.924,136,62,76.77,23.792,126.47,56.524,140,145,18.47,120.729-114.27,195.471-235,174-70.82-12.6-151.84-44.952-187-92q34.995-43.5,70-87l6,6q13.995,11,28,22c30.29,21.475,63.9,39.6,108,47,47.43,7.959,99.37-15.524,86-64-8.74-31.7-45.69-38.52-77-48-56.62-17.144-112.63-29.3-154-61-44.55-34.14-60.62-133.489-26-192,12.27-20.74,32.43-38.559,53-51,19.39-11.725,43.94-19.554,69-25Zm651,0c82.84-1.924,138.8,23.465,185,58,11.08,8.279,53.07,37.358,40,48q-33.99,39-68,78c-0.67-.333-1.33-0.667-2-1-23.45-50.253-126.43-87.508-199-59-59.42,23.344-89.1,64.98-101,137-3.62,21.921,1.61,47.091,6,63,14.56,52.787,45.86,88.267,94,107,75.29,29.294,169.72-15.1,196-61l15,14q30.99,32,62,64l-3,3c-9.33,19.334-35.8,35.781-53,48-115.81,82.293-293.15,61.882-374-39-20.86-26.027-39.8-54.3-52-89-56.61-161.032,43.03-301.744,149-348,21.39-9.335,45.52-15.045,71-20Zm571,12h115q114.99,266.474,230,533H2662q-24.495-57.494-49-115H2390q-24.495,57.494-49,115H2214Q2328.99,278.527,2444,12Zm500,0,119,1V439h227q-0.495,53-1,106H2944V12Zm909,0V119H3588V228h238V330H3588V439h273V545H3469q0.495-266.473,1-533h383ZM2501,173q-32.49,75.993-65,152h132q-24-54.995-48-110C2514.89,203.138,2510.84,180.317,2501,173Z"/>
</svg>
